<svg width="2000px" height="750px"
 viewBox="0.00 0.00 656.24 245.97" xmlns="http://www.w3.org/2000/svg" xmlns:xlink="http://www.w3.org/1999/xlink">
<g id="graph0" class="graph" transform="scale(1.0 1.0) rotate(0) translate(4 241.97)">
<title>ContextMapGraph</title>
<polygon fill="white" stroke="transparent" points="-4,4 -4,-241.97 652.24,-241.97 652.24,4 -4,4"/>
<!-- Seguridad -->
<g id="node1" class="node">
<title>Seguridad</title>
<polygon fill="none" stroke="black" stroke-width="2" points="164.13,-159.18 168.41,-161.16 172.5,-163.22 176.36,-165.35 179.99,-167.54 183.37,-169.77 186.48,-172.05 189.31,-174.36 191.85,-176.69 194.08,-179.05 196,-181.41 197.61,-183.78 198.89,-186.14 199.83,-188.48 200.44,-190.81 200.72,-193.12 200.66,-195.39 200.26,-197.63 199.54,-199.82 198.48,-201.97 197.11,-204.06 195.42,-206.1 193.43,-208.08 191.14,-210 188.57,-211.85 185.73,-213.63 182.64,-215.34 179.3,-216.97 175.74,-218.53 171.96,-220.01 168,-221.4 163.85,-222.72 159.55,-223.96 155.11,-225.11 150.55,-226.18 145.88,-227.16 141.12,-228.06 136.3,-228.87 131.42,-229.6 126.51,-230.23 121.59,-230.78 116.66,-231.25 111.75,-231.62 106.86,-231.9 102.02,-232.1 97.24,-232.21 92.53,-232.22 87.89,-232.14 83.35,-231.97 78.91,-231.71 74.57,-231.36 70.36,-230.91 66.27,-230.37 62.31,-229.73 58.49,-229 54.82,-228.18 51.29,-227.26 47.91,-226.24 44.68,-225.14 41.61,-223.93 38.69,-222.64 35.94,-221.25 33.34,-219.77 30.91,-218.2 28.64,-216.55 26.53,-214.81 24.58,-212.99 22.8,-211.09 21.18,-209.12 19.73,-207.07 18.45,-204.96 17.33,-202.78 16.38,-200.55 15.59,-198.26 14.98,-195.93 14.54,-193.57 14.28,-191.16 14.19,-188.74 14.28,-186.29 14.55,-183.84 15,-181.38 15.64,-178.93 16.47,-176.5 17.49,-174.09 18.7,-171.71 20.11,-169.37 21.71,-167.08 23.52,-164.84 25.52,-162.68 27.73,-160.58 30.14,-158.58 32.75,-156.66 35.56,-154.84 38.57,-153.13 41.78,-151.53 45.18,-150.05 48.77,-148.69 52.55,-147.47 56.5,-146.39 60.63,-145.44 64.92,-144.64 69.36,-143.99 73.95,-143.49 78.67,-143.14 83.51,-142.94 88.46,-142.9 93.5,-143.02 98.61,-143.28 103.79,-143.7 109.02,-144.27 114.27,-144.98 119.54,-145.84 124.79,-146.84 130.01,-147.97 135.19,-149.23 140.3,-150.62 145.32,-152.12 150.23,-153.73 155.02,-155.45 159.65,-157.27 164.13,-159.18"/>
<text text-anchor="middle" x="100.24" y="-186.65" font-family="sans-serif" font-size="16.00">Seguridad</text>
</g>
<!-- gestionPagos -->
<g id="node2" class="node">
<title>gestionPagos</title>
<polygon fill="none" stroke="black" stroke-width="2" points="181.65,-4.06 188.49,-4.65 195.22,-5.35 201.82,-6.17 208.26,-7.09 214.51,-8.12 220.55,-9.26 226.35,-10.49 231.89,-11.82 237.15,-13.25 242.12,-14.76 246.77,-16.35 251.09,-18.03 255.06,-19.78 258.67,-21.6 261.92,-23.48 264.79,-25.42 267.28,-27.42 269.38,-29.47 271.1,-31.56 272.43,-33.69 273.38,-35.85 273.94,-38.04 274.13,-40.25 273.95,-42.48 273.42,-44.72 272.53,-46.96 271.31,-49.2 269.76,-51.43 267.9,-53.66 265.75,-55.86 263.32,-58.04 260.62,-60.19 257.67,-62.3 254.5,-64.38 251.11,-66.41 247.52,-68.39 243.75,-70.31 239.83,-72.18 235.75,-73.98 231.55,-75.71 227.23,-77.36 222.81,-78.94 218.3,-80.43 213.73,-81.84 209.09,-83.15 204.4,-84.37 199.68,-85.49 194.93,-86.52 190.16,-87.43 185.39,-88.24 180.61,-88.94 175.83,-89.53 171.06,-90.01 166.31,-90.37 161.58,-90.61 156.87,-90.73 152.19,-90.74 147.54,-90.62 142.93,-90.39 138.35,-90.04 133.81,-89.57 129.31,-88.98 124.87,-88.27 120.47,-87.45 116.12,-86.52 111.83,-85.47 107.61,-84.32 103.45,-83.06 99.36,-81.69 95.35,-80.23 91.43,-78.67 87.6,-77.02 83.88,-75.28 80.26,-73.46 76.77,-71.57 73.41,-69.6 70.19,-67.56 67.13,-65.47 64.24,-63.32 61.52,-61.12 59,-58.87 56.69,-56.6 54.59,-54.29 52.73,-51.96 51.12,-49.61 49.77,-47.26 48.69,-44.9 47.89,-42.55 47.4,-40.21 47.21,-37.89 47.34,-35.59 47.8,-33.33 48.6,-31.11 49.74,-28.93 51.22,-26.8 53.06,-24.73 55.25,-22.73 57.79,-20.79 60.69,-18.94 63.94,-17.16 67.53,-15.47 71.46,-13.87 75.72,-12.36 80.3,-10.96 85.18,-9.65 90.35,-8.46 95.8,-7.37 101.51,-6.4 107.46,-5.54 113.62,-4.8 119.97,-4.18 126.5,-3.68 133.17,-3.3 139.96,-3.05 146.84,-2.91 153.79,-2.9 160.77,-3.01 167.76,-3.24 174.73,-3.59 181.65,-4.06"/>
<text text-anchor="middle" x="158.24" y="-43.16" font-family="sans-serif" font-size="16.00">gestionPagos</text>
</g>
<!-- Seguridad&#45;&gt;gestionPagos -->
<g id="edge1" class="edge">
<title>Seguridad&#45;&gt;gestionPagos</title>
<path fill="none" stroke="black" stroke-width="2" d="M95.52,-142.92C95.9,-132.45 97.49,-121.59 101.24,-111.93 104.74,-102.91 110.14,-94.35 116.24,-86.6"/>
<text text-anchor="middle" x="143.24" y="-115.33" font-family="sans-serif" font-size="12.00">Shared Kernel</text>
</g>
<!-- gestionAlquileres -->
<g id="node3" class="node">
<title>gestionAlquileres</title>
<polygon fill="none" stroke="black" stroke-width="2" points="558.73,-52.8 557.73,-55.65 556.38,-58.46 554.68,-61.23 552.65,-63.95 550.28,-66.59 547.59,-69.16 544.57,-71.64 541.25,-74.02 537.63,-76.3 533.71,-78.46 529.52,-80.5 525.05,-82.41 520.33,-84.19 515.37,-85.82 510.18,-87.31 504.77,-88.66 499.16,-89.85 493.37,-90.89 487.41,-91.77 481.29,-92.5 475.04,-93.08 468.67,-93.5 462.19,-93.77 455.63,-93.89 449,-93.86 442.32,-93.7 435.61,-93.39 428.89,-92.95 422.16,-92.39 415.47,-91.7 408.81,-90.89 402.2,-89.98 395.68,-88.96 389.25,-87.84 382.92,-86.63 376.73,-85.33 370.67,-83.96 364.78,-82.52 359.07,-81.01 353.54,-79.44 348.23,-77.82 343.13,-76.15 338.27,-74.44 333.65,-72.69 329.3,-70.91 325.22,-69.1 321.43,-67.26 317.93,-65.41 314.73,-63.54 311.84,-61.66 309.28,-59.76 307.05,-57.86 305.15,-55.95 303.59,-54.04 302.38,-52.13 301.52,-50.21 301.01,-48.3 300.85,-46.39 301.05,-44.48 301.6,-42.58 302.5,-40.68 303.76,-38.79 305.36,-36.91 307.31,-35.04 309.59,-33.18 312.21,-31.34 315.16,-29.51 318.42,-27.7 322,-25.91 325.87,-24.14 330.04,-22.4 334.48,-20.7 339.19,-19.02 344.15,-17.38 349.35,-15.79 354.78,-14.25 360.42,-12.75 366.25,-11.32 372.27,-9.95 378.44,-8.65 384.76,-7.42 391.21,-6.28 397.77,-5.22 404.41,-4.26 411.13,-3.39 417.91,-2.63 424.72,-1.99 431.54,-1.46 438.36,-1.05 445.16,-0.77 451.92,-0.63 458.62,-0.62 465.23,-0.75 471.76,-1.03 478.16,-1.45 484.43,-2.02 490.55,-2.74 496.5,-3.61 502.26,-4.64 507.83,-5.81 513.18,-7.13 518.3,-8.6 523.17,-10.21 527.78,-11.96 532.12,-13.84 536.18,-15.85 539.95,-17.99 543.41,-20.24 546.55,-22.59 549.38,-25.05 551.87,-27.59 554.03,-30.22 555.85,-32.91 557.32,-35.67 558.44,-38.47 559.21,-41.31 559.62,-44.17 559.68,-47.05 559.38,-49.93 558.73,-52.8"/>
<text text-anchor="middle" x="430.24" y="-43.16" font-family="sans-serif" font-size="16.00">gestionAlquileres</text>
</g>
<!-- gestionClientes -->
<g id="node4" class="node">
<title>gestionClientes</title>
<polygon fill="none" stroke="black" stroke-width="2" points="419.33,-148.85 426.74,-149.73 434,-150.71 441.08,-151.81 447.95,-153 454.58,-154.29 460.95,-155.68 467.03,-157.15 472.79,-158.71 478.22,-160.35 483.3,-162.06 487.99,-163.85 492.3,-165.7 496.21,-167.6 499.7,-169.57 502.76,-171.58 505.39,-173.63 507.58,-175.72 509.33,-177.84 510.64,-180 511.51,-182.17 511.95,-184.36 511.96,-186.55 511.54,-188.76 510.71,-190.96 509.48,-193.16 507.87,-195.35 505.88,-197.52 503.53,-199.67 500.84,-201.8 497.83,-203.9 494.52,-205.95 490.92,-207.97 487.06,-209.95 482.95,-211.87 478.62,-213.75 474.08,-215.56 469.37,-217.31 464.49,-218.99 459.46,-220.6 454.32,-222.14 449.06,-223.6 443.72,-224.97 438.31,-226.26 432.84,-227.46 427.33,-228.57 421.79,-229.58 416.24,-230.49 410.69,-231.3 405.15,-232.01 399.62,-232.61 394.13,-233.1 388.67,-233.48 383.25,-233.74 377.89,-233.9 372.58,-233.93 367.32,-233.86 362.14,-233.66 357.02,-233.35 351.97,-232.92 347,-232.37 342.1,-231.71 337.29,-230.93 332.56,-230.04 327.92,-229.04 323.37,-227.92 318.92,-226.7 314.56,-225.37 310.31,-223.94 306.17,-222.41 302.14,-220.79 298.24,-219.07 294.46,-217.27 290.83,-215.38 287.34,-213.42 284.01,-211.39 280.84,-209.29 277.86,-207.13 275.06,-204.92 272.46,-202.66 270.08,-200.35 267.92,-198.02 266,-195.66 264.33,-193.28 262.93,-190.88 261.81,-188.48 260.98,-186.09 260.45,-183.7 260.24,-181.33 260.35,-178.99 260.8,-176.67 261.6,-174.4 262.75,-172.17 264.26,-170 266.14,-167.88 268.38,-165.83 271.01,-163.86 274,-161.96 277.37,-160.15 281.1,-158.43 285.21,-156.8 289.66,-155.28 294.47,-153.86 299.62,-152.54 305.09,-151.35 310.86,-150.26 316.94,-149.3 323.28,-148.45 329.88,-147.73 336.71,-147.13 343.75,-146.66 350.96,-146.32 358.33,-146.1 365.83,-146.01 373.43,-146.05 381.09,-146.21 388.79,-146.5 396.49,-146.91 404.17,-147.44 411.79,-148.09 419.33,-148.85"/>
<text text-anchor="middle" x="381.24" y="-186.65" font-family="sans-serif" font-size="16.00">gestionClientes</text>
</g>
<!-- gestionClientes&#45;&gt;gestionPagos -->
<g id="edge3" class="edge">
<title>gestionClientes&#45;&gt;gestionPagos</title>
<path fill="none" stroke="black" stroke-width="2" d="M283.22,-157.53C262.76,-148.63 242.03,-137.79 224.24,-124.93 210.26,-114.82 197.31,-101.17 186.65,-88.18"/>
<text text-anchor="middle" x="299.74" y="-115.33" font-family="sans-serif" font-size="12.00"> &#160;&#160;&#160;&#160;&#160;&#160;&#160;&#160;&#160;&#160;&#160;&#160;&#160;&#160;&#160;&#160;&#160;&#160;&#160;&#160;&#160;&#160;&#160;&#160;&#160;&#160;&#160;&#160;&#160;&#160;&#160;&#160;&#160;&#160;&#160;&#160;&#160;&#160;&#160;</text>
<polygon fill="white" stroke="transparent" points="179.65,-79.18 179.65,-96.18 193.65,-96.18 193.65,-79.18 179.65,-79.18"/>
<text text-anchor="start" x="181.65" y="-84.58" font-family="sans-serif" font-size="12.00">D</text>
<polygon fill="white" stroke="transparent" points="276.22,-148.53 276.22,-165.53 290.22,-165.53 290.22,-148.53 276.22,-148.53"/>
<text text-anchor="start" x="278.22" y="-153.93" font-family="sans-serif" font-size="12.00">U</text>
</g>
<!-- gestionClientes&#45;&gt;gestionAlquileres -->
<g id="edge2" class="edge">
<title>gestionClientes&#45;&gt;gestionAlquileres</title>
<path fill="none" stroke="black" stroke-width="2" d="M377.05,-145.98C377.23,-134.65 378.59,-122.63 382.24,-111.93 384.97,-103.91 389.13,-96.08 393.87,-88.81"/>
<text text-anchor="middle" x="438.24" y="-115.33" font-family="sans-serif" font-size="12.00">Customer/Supplier</text>
<polygon fill="white" stroke="transparent" points="386.87,-79.81 386.87,-96.81 400.87,-96.81 400.87,-79.81 386.87,-79.81"/>
<text text-anchor="start" x="388.87" y="-85.21" font-family="sans-serif" font-size="12.00">D</text>
<polygon fill="white" stroke="transparent" points="370.05,-136.98 370.05,-153.98 384.05,-153.98 384.05,-136.98 370.05,-136.98"/>
<text text-anchor="start" x="372.05" y="-142.38" font-family="sans-serif" font-size="12.00">U</text>
</g>
<!-- gestionClientes&#45;&gt;gestionAlquileres -->
<g id="edge4" class="edge">
<title>gestionClientes&#45;&gt;gestionAlquileres</title>
<path fill="none" stroke="black" stroke-width="2" d="M464.05,-156.3C476.12,-147.87 486.92,-137.53 494.24,-124.93 500.87,-113.5 497.92,-102.08 490.5,-91.66"/>
<text text-anchor="middle" x="572.74" y="-115.33" font-family="sans-serif" font-size="12.00"> &#160;&#160;&#160;&#160;&#160;&#160;&#160;&#160;&#160;&#160;&#160;&#160;&#160;&#160;&#160;&#160;&#160;&#160;&#160;&#160;&#160;&#160;&#160;&#160;&#160;&#160;&#160;&#160;&#160;&#160;&#160;&#160;&#160;&#160;&#160;&#160;&#160;&#160;&#160;</text>
<polygon fill="white" stroke="transparent" points="483.5,-82.66 483.5,-99.66 497.5,-99.66 497.5,-82.66 483.5,-82.66"/>
<text text-anchor="start" x="485.5" y="-88.06" font-family="sans-serif" font-size="12.00">D</text>
<polygon fill="white" stroke="transparent" points="457.05,-147.3 457.05,-164.3 471.05,-164.3 471.05,-147.3 457.05,-147.3"/>
<text text-anchor="start" x="459.05" y="-152.7" font-family="sans-serif" font-size="12.00">U</text>
</g>
</g>
</svg>
