<svg width="2000px" height="1470px"
 viewBox="0.00 0.00 723.72 531.91" xmlns="http://www.w3.org/2000/svg" xmlns:xlink="http://www.w3.org/1999/xlink">
<g id="graph0" class="graph" transform="scale(1.0 1.0) rotate(0) translate(4 527.91)">
<title>ContextMapGraph</title>
<polygon fill="white" stroke="transparent" points="-4,4 -4,-527.91 719.72,-527.91 719.72,4 -4,4"/>
<!-- Seguridad -->
<g id="node1" class="node">
<title>Seguridad</title>
<polygon fill="none" stroke="black" stroke-width="2" points="406.56,-438.35 411.74,-436.95 417.01,-435.66 422.35,-434.5 427.73,-433.46 433.14,-432.56 438.55,-431.79 443.94,-431.15 449.3,-430.67 454.61,-430.32 459.84,-430.12 464.99,-430.07 470.03,-430.17 474.95,-430.42 479.73,-430.82 484.37,-431.36 488.84,-432.06 493.15,-432.89 497.28,-433.87 501.22,-434.98 504.96,-436.23 508.5,-437.6 511.83,-439.1 514.95,-440.71 517.86,-442.44 520.54,-444.27 523.02,-446.19 525.27,-448.21 527.31,-450.31 529.13,-452.48 530.73,-454.72 532.13,-457.02 533.31,-459.37 534.29,-461.75 535.07,-464.17 535.65,-466.61 536.04,-469.07 536.23,-471.53 536.24,-474 536.07,-476.45 535.72,-478.88 535.19,-481.29 534.5,-483.67 533.63,-486 532.6,-488.3 531.41,-490.53 530.06,-492.71 528.56,-494.83 526.89,-496.88 525.08,-498.85 523.11,-500.75 521,-502.56 518.73,-504.29 516.32,-505.93 513.76,-507.48 511.05,-508.94 508.2,-510.3 505.21,-511.57 502.07,-512.73 498.8,-513.8 495.38,-514.76 491.84,-515.63 488.15,-516.4 484.34,-517.06 480.41,-517.63 476.36,-518.09 472.19,-518.46 467.91,-518.73 463.53,-518.9 459.06,-518.97 454.51,-518.95 449.88,-518.83 445.19,-518.62 440.44,-518.31 435.66,-517.91 430.85,-517.43 426.02,-516.85 421.2,-516.18 416.39,-515.43 411.62,-514.58 406.89,-513.66 402.24,-512.65 397.66,-511.55 393.19,-510.38 388.84,-509.13 384.62,-507.79 380.56,-506.38 376.68,-504.9 372.98,-503.34 369.49,-501.71 366.22,-500.01 363.19,-498.25 360.42,-496.42 357.91,-494.53 355.68,-492.58 353.75,-490.58 352.13,-488.53 350.81,-486.43 349.82,-484.29 349.16,-482.11 348.83,-479.89 348.84,-477.65 349.19,-475.39 349.88,-473.11 350.91,-470.82 352.27,-468.52 353.97,-466.23 355.99,-463.94 358.34,-461.68 360.98,-459.43 363.93,-457.21 367.17,-455.04 370.67,-452.9 374.44,-450.82 378.45,-448.8 382.68,-446.85 387.12,-444.97 391.74,-443.17 396.54,-441.46 401.49,-439.85 406.56,-438.35"/>
<text text-anchor="middle" x="449.72" y="-473.16" font-family="sans-serif" font-size="16.00">Seguridad</text>
</g>
<!-- gestionPagos -->
<g id="node2" class="node">
<title>gestionPagos</title>
<polygon fill="none" stroke="black" stroke-width="2" points="517.87,-300.28 523.31,-302.08 528.53,-303.96 533.5,-305.91 538.21,-307.93 542.63,-310.01 546.76,-312.15 550.56,-314.32 554.02,-316.54 557.14,-318.79 559.89,-321.06 562.26,-323.34 564.26,-325.63 565.86,-327.93 567.07,-330.22 567.88,-332.5 568.29,-334.76 568.31,-337.01 567.92,-339.22 567.14,-341.4 565.98,-343.54 564.43,-345.64 562.52,-347.69 560.25,-349.69 557.64,-351.64 554.69,-353.53 551.43,-355.36 547.87,-357.12 544.03,-358.82 539.93,-360.45 535.58,-362.01 531.01,-363.49 526.24,-364.9 521.28,-366.24 516.17,-367.49 510.91,-368.67 505.54,-369.76 500.06,-370.77 494.51,-371.7 488.9,-372.54 483.25,-373.29 477.58,-373.96 471.91,-374.54 466.26,-375.03 460.64,-375.42 455.06,-375.73 449.54,-375.94 444.1,-376.06 438.75,-376.08 433.5,-376.01 428.35,-375.84 423.33,-375.57 418.43,-375.21 413.66,-374.74 409.04,-374.17 404.56,-373.51 400.23,-372.74 396.06,-371.88 392.05,-370.91 388.2,-369.84 384.51,-368.68 380.99,-367.41 377.64,-366.05 374.46,-364.59 371.46,-363.04 368.62,-361.4 365.96,-359.67 363.47,-357.86 361.16,-355.96 359.03,-353.99 357.07,-351.94 355.3,-349.83 353.72,-347.65 352.32,-345.41 351.11,-343.12 350.09,-340.78 349.27,-338.4 348.66,-335.99 348.24,-333.56 348.04,-331.11 348.05,-328.64 348.28,-326.18 348.73,-323.72 349.41,-321.28 350.33,-318.86 351.48,-316.48 352.87,-314.13 354.51,-311.83 356.4,-309.59 358.54,-307.42 360.93,-305.32 363.58,-303.31 366.49,-301.38 369.65,-299.55 373.07,-297.82 376.73,-296.21 380.65,-294.71 384.81,-293.34 389.21,-292.09 393.83,-290.98 398.68,-290 403.75,-289.17 409.01,-288.47 414.46,-287.93 420.08,-287.53 425.86,-287.28 431.79,-287.18 437.83,-287.23 443.99,-287.43 450.22,-287.78 456.52,-288.27 462.86,-288.9 469.22,-289.67 475.57,-290.57 481.9,-291.61 488.17,-292.77 494.36,-294.06 500.46,-295.46 506.42,-296.96 512.23,-298.58 517.87,-300.28"/>
<text text-anchor="middle" x="449.72" y="-330.27" font-family="sans-serif" font-size="16.00">gestionPagos</text>
</g>
<!-- Seguridad&#45;&gt;gestionPagos -->
<g id="edge1" class="edge">
<title>Seguridad&#45;&gt;gestionPagos</title>
<path fill="none" stroke="black" stroke-width="2" d="M449.72,-430.61C449.72,-413.07 449.72,-393.15 449.72,-376.05"/>
<text text-anchor="middle" x="491.72" y="-402.42" font-family="sans-serif" font-size="12.00">Shared Kernel</text>
</g>
<!-- gestionAlquileres -->
<g id="node3" class="node">
<title>gestionAlquileres</title>
<polygon fill="none" stroke="black" stroke-width="2" points="384.93,-154.11 392.36,-155.5 399.57,-156.98 406.52,-158.56 413.2,-160.22 419.56,-161.97 425.59,-163.78 431.26,-165.67 436.54,-167.61 441.42,-169.61 445.88,-171.66 449.9,-173.75 453.47,-175.88 456.57,-178.04 459.19,-180.22 461.33,-182.42 462.99,-184.63 464.15,-186.85 464.83,-189.06 465.01,-191.28 464.72,-193.48 463.95,-195.67 462.72,-197.84 461.03,-199.98 458.9,-202.1 456.35,-204.18 453.38,-206.22 450.03,-208.23 446.3,-210.18 442.23,-212.09 437.83,-213.94 433.12,-215.74 428.13,-217.48 422.89,-219.15 417.41,-220.76 411.72,-222.3 405.85,-223.77 399.82,-225.16 393.65,-226.48 387.37,-227.71 381,-228.86 374.56,-229.93 368.07,-230.91 361.55,-231.8 355.02,-232.6 348.51,-233.3 342.01,-233.91 335.56,-234.41 329.17,-234.82 322.84,-235.12 316.6,-235.32 310.45,-235.42 304.39,-235.41 298.45,-235.29 292.63,-235.06 286.93,-234.72 281.35,-234.28 275.92,-233.72 270.62,-233.05 265.46,-232.27 260.45,-231.38 255.59,-230.38 250.88,-229.27 246.33,-228.06 241.93,-226.74 237.7,-225.32 233.62,-223.8 229.71,-222.18 225.97,-220.47 222.41,-218.67 219.02,-216.78 215.81,-214.81 212.79,-212.77 209.97,-210.65 207.34,-208.47 204.93,-206.23 202.73,-203.93 200.75,-201.59 199.01,-199.21 197.5,-196.8 196.25,-194.36 195.26,-191.91 194.54,-189.44 194.1,-186.98 193.95,-184.52 194.11,-182.07 194.57,-179.65 195.35,-177.26 196.46,-174.91 197.9,-172.6 199.69,-170.35 201.83,-168.17 204.31,-166.05 207.16,-164.01 210.36,-162.06 213.92,-160.2 217.84,-158.43 222.11,-156.78 226.73,-155.23 231.7,-153.79 237,-152.48 242.63,-151.29 248.57,-150.23 254.82,-149.3 261.34,-148.5 268.13,-147.84 275.17,-147.32 282.43,-146.93 289.9,-146.69 297.54,-146.58 305.33,-146.61 313.24,-146.78 321.25,-147.09 329.32,-147.53 337.42,-148.1 345.52,-148.81 353.6,-149.63 361.6,-150.58 369.52,-151.65 377.3,-152.82 384.93,-154.11"/>
<text text-anchor="middle" x="320.72" y="-188.65" font-family="sans-serif" font-size="16.00">gestionAlquileres</text>
</g>
<!-- gestionPagos&#45;&gt;gestionAlquileres -->
<g id="edge2" class="edge">
<title>gestionPagos&#45;&gt;gestionAlquileres</title>
<path fill="none" stroke="black" stroke-width="2" d="M396.17,-290.26C388.69,-283.47 381.32,-276.32 374.72,-269.13 364.8,-258.3 355.1,-245.61 346.73,-233.75"/>
<text text-anchor="middle" x="450.22" y="-259.53" font-family="sans-serif" font-size="12.00"> &#160;&#160;&#160;&#160;&#160;&#160;&#160;&#160;&#160;&#160;&#160;&#160;&#160;&#160;&#160;&#160;&#160;&#160;&#160;&#160;&#160;&#160;&#160;&#160;&#160;&#160;&#160;&#160;&#160;&#160;&#160;&#160;&#160;&#160;&#160;&#160;&#160;&#160;&#160;</text>
<polygon fill="white" stroke="transparent" points="339.73,-224.75 339.73,-241.75 353.73,-241.75 353.73,-224.75 339.73,-224.75"/>
<text text-anchor="start" x="341.73" y="-230.15" font-family="sans-serif" font-size="12.00">D</text>
<polygon fill="white" stroke="transparent" points="389.17,-281.26 389.17,-298.26 403.17,-298.26 403.17,-281.26 389.17,-281.26"/>
<text text-anchor="start" x="391.17" y="-286.66" font-family="sans-serif" font-size="12.00">U</text>
</g>
<!-- gestionVehiculos -->
<g id="node4" class="node">
<title>gestionVehiculos</title>
<polygon fill="none" stroke="black" stroke-width="2" points="26.14,-25.24 30.54,-22.81 35.21,-20.45 40.13,-18.19 45.28,-16.03 50.65,-13.97 56.22,-12.03 61.96,-10.22 67.86,-8.54 73.89,-7 80.05,-5.6 86.3,-4.35 92.64,-3.26 99.04,-2.33 105.49,-1.56 111.96,-0.95 118.44,-0.51 124.91,-0.23 131.37,-0.12 137.78,-0.17 144.14,-0.38 150.43,-0.76 156.64,-1.29 162.76,-1.97 168.77,-2.79 174.66,-3.76 180.42,-4.87 186.03,-6.1 191.5,-7.46 196.81,-8.93 201.94,-10.51 206.9,-12.2 211.67,-13.97 216.24,-15.82 220.61,-17.75 224.77,-19.75 228.72,-21.81 232.43,-23.91 235.92,-26.06 239.17,-28.24 242.17,-30.45 244.93,-32.68 247.42,-34.92 249.66,-37.16 251.63,-39.4 253.33,-41.64 254.74,-43.86 255.88,-46.06 256.73,-48.24 257.28,-50.39 257.54,-52.5 257.5,-54.58 257.16,-56.62 256.5,-58.62 255.54,-60.57 254.27,-62.48 252.69,-64.33 250.79,-66.14 248.58,-67.89 246.06,-69.59 243.23,-71.23 240.09,-72.82 236.64,-74.35 232.9,-75.82 228.86,-77.23 224.53,-78.59 219.92,-79.88 215.04,-81.12 209.9,-82.29 204.5,-83.4 198.87,-84.44 193.01,-85.42 186.94,-86.33 180.68,-87.17 174.23,-87.94 167.63,-88.64 160.88,-89.27 154.01,-89.81 147.03,-90.27 139.98,-90.66 132.86,-90.95 125.71,-91.16 118.54,-91.27 111.38,-91.29 104.26,-91.21 97.2,-91.04 90.21,-90.75 83.34,-90.37 76.59,-89.87 70,-89.26 63.58,-88.54 57.37,-87.71 51.38,-86.76 45.63,-85.7 40.14,-84.51 34.94,-83.22 30.05,-81.81 25.47,-80.28 21.23,-78.64 17.33,-76.89 13.81,-75.03 10.65,-73.07 7.89,-71.01 5.52,-68.86 3.55,-66.62 1.99,-64.29 0.84,-61.89 0.1,-59.43 -0.23,-56.9 -0.14,-54.31 0.36,-51.69 1.26,-49.03 2.56,-46.35 4.25,-43.65 6.33,-40.95 8.77,-38.25 11.58,-35.57 14.73,-32.92 18.22,-30.31 22.03,-27.74 26.14,-25.24"/>
<text text-anchor="middle" x="133.72" y="-45.08" font-family="sans-serif" font-size="16.00">gestionVehiculos</text>
</g>
<!-- gestionAlquileres&#45;&gt;gestionVehiculos -->
<g id="edge3" class="edge">
<title>gestionAlquileres&#45;&gt;gestionVehiculos</title>
<path fill="none" stroke="black" stroke-width="2" d="M228.29,-154.61C214.64,-147.13 201.3,-138.51 189.72,-128.76 176.88,-117.95 165.52,-103.54 156.45,-90.01"/>
<text text-anchor="middle" x="231.72" y="-119.16" font-family="sans-serif" font-size="12.00">Shared Kernel</text>
</g>
<!-- gestionClientes -->
<g id="node5" class="node">
<title>gestionClientes</title>
<polygon fill="none" stroke="black" stroke-width="2" points="496.36,-80.78 490.79,-82.78 485.03,-84.68 479.1,-86.47 473.02,-88.14 466.83,-89.69 460.53,-91.11 454.16,-92.39 447.73,-93.54 441.26,-94.53 434.79,-95.38 428.32,-96.07 421.88,-96.6 415.49,-96.98 409.16,-97.19 402.92,-97.24 396.78,-97.13 390.75,-96.87 384.85,-96.44 379.09,-95.86 373.49,-95.12 368.05,-94.24 362.79,-93.21 357.72,-92.04 352.83,-90.73 348.15,-89.3 343.68,-87.75 339.41,-86.08 335.37,-84.31 331.54,-82.44 327.94,-80.48 324.57,-78.43 321.42,-76.32 318.51,-74.14 315.83,-71.9 313.39,-69.61 311.18,-67.29 309.2,-64.93 307.46,-62.56 305.96,-60.17 304.7,-57.77 303.68,-55.38 302.89,-53 302.34,-50.63 302.04,-48.29 301.97,-45.98 302.15,-43.71 302.57,-41.47 303.23,-39.29 304.14,-37.16 305.29,-35.08 306.7,-33.06 308.35,-31.11 310.25,-29.22 312.39,-27.41 314.79,-25.66 317.44,-23.99 320.34,-22.4 323.48,-20.88 326.87,-19.44 330.51,-18.08 334.39,-16.8 338.5,-15.6 342.85,-14.48 347.43,-13.44 352.22,-12.49 357.23,-11.61 362.45,-10.82 367.86,-10.11 373.46,-9.48 379.24,-8.93 385.17,-8.47 391.25,-8.09 397.46,-7.79 403.78,-7.58 410.21,-7.45 416.71,-7.4 423.27,-7.44 429.88,-7.57 436.5,-7.79 443.12,-8.09 449.71,-8.49 456.26,-8.97 462.73,-9.55 469.11,-10.21 475.38,-10.97 481.5,-11.83 487.45,-12.78 493.22,-13.82 498.77,-14.96 504.09,-16.19 509.16,-17.51 513.95,-18.93 518.44,-20.44 522.62,-22.05 526.46,-23.74 529.96,-25.52 533.09,-27.38 535.84,-29.33 538.21,-31.35 540.18,-33.44 541.74,-35.61 542.88,-37.84 543.61,-40.13 543.92,-42.47 543.8,-44.86 543.26,-47.28 542.31,-49.74 540.94,-52.22 539.17,-54.72 537,-57.23 534.44,-59.74 531.5,-62.24 528.2,-64.72 524.56,-67.17 520.58,-69.59 516.29,-71.95 511.7,-74.27 506.83,-76.52 501.71,-78.69 496.36,-80.78"/>
<text text-anchor="middle" x="414.72" y="-45.08" font-family="sans-serif" font-size="16.00">gestionClientes</text>
</g>
<!-- gestionAlquileres&#45;&gt;gestionClientes -->
<g id="edge4" class="edge">
<title>gestionAlquileres&#45;&gt;gestionClientes</title>
<path fill="none" stroke="black" stroke-width="2" d="M282.41,-146.71C277.86,-136.35 276.69,-125.52 282.72,-115.76 292.56,-99.86 307.52,-87.67 323.88,-78.37"/>
<text text-anchor="middle" x="317.22" y="-119.16" font-family="sans-serif" font-size="12.00">Partnership</text>
</g>
<!-- gestionClientes&#45;&gt;gestionPagos -->
<g id="edge6" class="edge">
<title>gestionClientes&#45;&gt;gestionPagos</title>
<path fill="none" stroke="black" stroke-width="2" d="M492.31,-82.25C505.27,-91.18 516.99,-102.23 524.72,-115.76 610.01,-265 533.69,-252.02 525.72,-269.13 520.99,-279.29 513.77,-288.41 505.62,-296.37"/>
<text text-anchor="middle" x="640.22" y="-189.35" font-family="sans-serif" font-size="12.00"> &#160;&#160;&#160;&#160;&#160;&#160;&#160;&#160;&#160;&#160;&#160;&#160;&#160;&#160;&#160;&#160;&#160;&#160;&#160;&#160;&#160;&#160;&#160;&#160;&#160;&#160;&#160;&#160;&#160;&#160;&#160;&#160;&#160;&#160;&#160;&#160;&#160;&#160;&#160;</text>
<polygon fill="white" stroke="transparent" points="498.62,-287.37 498.62,-304.37 512.62,-304.37 512.62,-287.37 498.62,-287.37"/>
<text text-anchor="start" x="500.62" y="-292.77" font-family="sans-serif" font-size="12.00">D</text>
<polygon fill="white" stroke="transparent" points="485.31,-73.25 485.31,-90.25 499.31,-90.25 499.31,-73.25 485.31,-73.25"/>
<text text-anchor="start" x="487.31" y="-78.65" font-family="sans-serif" font-size="12.00">U</text>
</g>
<!-- gestionClientes&#45;&gt;gestionAlquileres -->
<g id="edge5" class="edge">
<title>gestionClientes&#45;&gt;gestionAlquileres</title>
<path fill="none" stroke="black" stroke-width="2" d="M383.59,-96.78C372.4,-113.63 359.85,-132.52 348.93,-148.97"/>
<text text-anchor="middle" x="445.22" y="-119.16" font-family="sans-serif" font-size="12.00"> &#160;&#160;&#160;&#160;&#160;&#160;&#160;&#160;&#160;&#160;&#160;&#160;&#160;&#160;&#160;&#160;&#160;&#160;&#160;&#160;&#160;&#160;&#160;&#160;&#160;&#160;&#160;&#160;&#160;&#160;&#160;&#160;&#160;&#160;&#160;&#160;&#160;&#160;&#160;</text>
<polygon fill="white" stroke="transparent" points="341.93,-139.97 341.93,-156.97 355.93,-156.97 355.93,-139.97 341.93,-139.97"/>
<text text-anchor="start" x="343.93" y="-145.37" font-family="sans-serif" font-size="12.00">D</text>
<polygon fill="white" stroke="transparent" points="376.59,-87.78 376.59,-104.78 390.59,-104.78 390.59,-87.78 376.59,-87.78"/>
<text text-anchor="start" x="378.59" y="-93.18" font-family="sans-serif" font-size="12.00">U</text>
</g>
</g>
</svg>
